<?xml version="1.0" encoding="UTF-8" standalone="no"?>
<svg
   viewBox="0 0 499.99999 420.00002"
   width="500"
   height="420"
   version="1.1"
   id="svg60"
   sodipodi:docname="Stealthchanger_CableManagement_logo.svg"
   inkscape:version="1.3.2 (091e20e, 2023-11-25)"
   inkscape:export-filename="Stealthchanger_tophat_logo.png"
   inkscape:export-xdpi="96"
   inkscape:export-ydpi="96"
   xmlns:inkscape="http://www.inkscape.org/namespaces/inkscape"
   xmlns:sodipodi="http://sodipodi.sourceforge.net/DTD/sodipodi-0.dtd"
   xmlns="http://www.w3.org/2000/svg"
   xmlns:svg="http://www.w3.org/2000/svg">
  <sodipodi:namedview
     id="namedview60"
     pagecolor="#ffffff"
     bordercolor="#000000"
     borderopacity="0.25"
     inkscape:showpageshadow="2"
     inkscape:pageopacity="0.0"
     inkscape:pagecheckerboard="0"
     inkscape:deskcolor="#d1d1d1"
     inkscape:zoom="2"
     inkscape:cx="227.25"
     inkscape:cy="212.25"
     inkscape:window-width="1736"
     inkscape:window-height="976"
     inkscape:window-x="0"
     inkscape:window-y="25"
     inkscape:window-maximized="0"
     inkscape:current-layer="g60"
     showgrid="false" />
  <desc
     id="desc1">Stealthchanger_tophat_logo.dxf - scale = 1.000000, origin = (0.000000, 0.000000), method = manual</desc>
  <defs
     id="defs4">
    <marker
       id="DistanceX"
       orient="auto"
       refX="0"
       refY="0"
       style="overflow:visible">
      <path
         d="M 3,-3 -3,3 M 0,-5 V 5"
         style="stroke:#000000;stroke-width:0.5"
         id="path1" />
    </marker>
    <pattern
       id="Hatch"
       patternUnits="userSpaceOnUse"
       width="8"
       height="8"
       x="0"
       y="0">
      <path
         d="M8 4 l-4,4"
         stroke="#000000"
         stroke-width="0.25"
         linecap="square"
         id="path2" />
      <path
         d="M6 2 l-4,4"
         stroke="#000000"
         stroke-width="0.25"
         linecap="square"
         id="path3" />
      <path
         d="M4 0 l-4,4"
         stroke="#000000"
         stroke-width="0.25"
         linecap="square"
         id="path4" />
    </pattern>
    <symbol
       id="*MODEL_SPACE" />
    <symbol
       id="*PAPER_SPACE" />
    <inkscape:path-effect
       effect="fill_between_many"
       method="originald"
       linkedpaths="#g3,0,1"
       id="path-effect73"
       is_visible="true"
       lpeversion="0"
       join="true"
       close="true"
       autoreverse="true" />
    <inkscape:path-effect
       effect="fill_between_many"
       method="originald"
       linkedpaths="#g3,0,1"
       id="path-effect74"
       is_visible="true"
       lpeversion="0"
       join="true"
       close="true"
       autoreverse="true" />
    <inkscape:path-effect
       effect="fill_between_many"
       method="originald"
       linkedpaths="#path55,0,1"
       id="path-effect75"
       is_visible="true"
       lpeversion="0"
       join="true"
       close="true"
       autoreverse="true" />
    <inkscape:path-effect
       effect="fill_between_many"
       method="originald"
       linkedpaths="#g4,0,1"
       id="path-effect80"
       is_visible="true"
       lpeversion="0"
       join="true"
       close="true"
       autoreverse="true" />
    <inkscape:path-effect
       effect="fill_between_many"
       method="originald"
       linkedpaths="#path111,0,1"
       id="path-effect127"
       is_visible="true"
       lpeversion="0"
       join="true"
       close="true"
       autoreverse="true" />
  </defs>
  <g
     inkscape:groupmode="layer"
     inkscape:label="0"
     id="g60">
    <path
       d="M 418.17469,266.82323 389.82823,250.45739 V 128.30114 L 248.09595,46.47197 106.36367,128.30114 78.01721,111.93531 248.09595,13.74028 418.17469,111.93531 v 98.19501 h 56.69291 z"
       style="fill:#db3f38;stroke:#db3f38;fill-opacity:1;stroke-opacity:1"
       id="path56" />
    <path
       d="m 78.01721,153.4374 28.34646,16.36584 v 122.15625 l 141.73228,81.82917 141.73228,-81.82917 28.34646,16.36583 -170.07874,98.19501 -170.07874,-98.19501 v -98.195 H 21.3243 Z"
       style="fill:#db3f38;stroke:#db3f38;fill-opacity:1;stroke-opacity:1"
       id="path58" />
    <ellipse
       style="opacity:1;fill:#db3f38;stroke:#db3f38"
       id="path6"
       cx="176.75"
       cy="85.75"
       rx="0.5"
       ry="0.75" />
    <path
       d="m 229.43821,341.75098 c 6.54563,0 11.8669,-5.32127 11.8669,-11.86691 v -34.89434 c 0,-29.24343 -23.63963,-52.93014 -52.83597,-53.07141 -15.21035,-0.0471 -28.72544,-10.83091 -30.60907,-25.89999 -2.26036,-18.0829 11.8669,-33.52871 29.47889,-33.52871 h 26.55925 c 5.50965,27.12435 29.4789,47.56179 58.25143,47.56179 h 30.13815 c 4.28527,0 7.72291,-3.43763 7.72291,-7.7229 v -14.73944 h 37.24889 c 5.83926,0 11.01926,-4.23818 11.58436,-10.03037 0.65926,-6.63981 -4.56782,-12.24363 -11.11346,-12.24363 H 310.0107 v -29.3847 h 37.24889 c 5.83926,0 11.01926,-4.23818 11.58436,-10.07745 0.61218,-6.63981 -4.56782,-12.24363 -11.11346,-12.24363 H 310.0107 v -14.78654 c 0,-4.28526 -3.43764,-7.7229 -7.72291,-7.7229 h -30.13815 c -28.77253,0 -52.74179,20.43744 -58.25143,47.56179 h -25.19362 c -28.96089,0 -53.6836,22.46235 -54.76668,51.42324 -1.13019,30.42071 23.26289,55.56724 53.44813,55.56724 h 0.42383 c 16.43471,0 29.71434,13.32672 29.71434,29.71433 v 34.47054 c 0.0471,6.59272 5.36836,11.91399 11.914,11.91399 z"
       id="path1-7"
       style="fill:#db3f38;stroke-width:0.470909" />
  </g>
</svg>
